<mxfile host="app.diagrams.net" modified="2024-03-24T02:57:10.337Z" agent="Mozilla/5.0 (Windows NT 10.0; Win64; x64) AppleWebKit/537.36 (KHTML, like Gecko) Chrome/123.0.0.0 Safari/537.36" etag="YctJOS8Lm2SNlZZqmbc8" version="24.0.9" type="device">
  <diagram id="bkcw-el_opbnEqBp6Mvw" name="Page-1">
    <mxGraphModel dx="1434" dy="780" grid="1" gridSize="10" guides="1" tooltips="1" connect="1" arrows="1" fold="1" page="1" pageScale="1" pageWidth="827" pageHeight="1169" math="0" shadow="0">
      <root>
        <mxCell id="0" />
        <mxCell id="1" parent="0" />
        <mxCell id="KQp-jgdmM7OsWoOIAHp7-7" style="edgeStyle=orthogonalEdgeStyle;rounded=0;orthogonalLoop=1;jettySize=auto;html=1;entryX=1;entryY=0.5;entryDx=0;entryDy=0;endArrow=none;endFill=0;exitX=0;exitY=0.5;exitDx=0;exitDy=0;startArrow=diamondThin;startFill=1;labelBackgroundColor=default;" parent="1" source="KQp-jgdmM7OsWoOIAHp7-1" target="KQp-jgdmM7OsWoOIAHp7-32" edge="1">
          <mxGeometry relative="1" as="geometry">
            <mxPoint x="240" y="180" as="sourcePoint" />
            <Array as="points">
              <mxPoint x="230" y="180" />
              <mxPoint x="230" y="180" />
            </Array>
          </mxGeometry>
        </mxCell>
        <mxCell id="KQp-jgdmM7OsWoOIAHp7-33" value="&lt;font style=&quot;font-size: 8px;&quot; face=&quot;Times New Roman&quot;&gt;contains&lt;/font&gt;" style="edgeLabel;html=1;align=center;verticalAlign=middle;resizable=0;points=[];labelBackgroundColor=none;" parent="KQp-jgdmM7OsWoOIAHp7-7" vertex="1" connectable="0">
          <mxGeometry x="-0.0012" relative="1" as="geometry">
            <mxPoint y="-10" as="offset" />
          </mxGeometry>
        </mxCell>
        <mxCell id="KQp-jgdmM7OsWoOIAHp7-35" value="&lt;font style=&quot;font-size: 8px;&quot; face=&quot;Times New Roman&quot;&gt;1..*&lt;/font&gt;" style="edgeLabel;html=1;align=center;verticalAlign=middle;resizable=0;points=[];labelBackgroundColor=none;" parent="KQp-jgdmM7OsWoOIAHp7-7" vertex="1" connectable="0">
          <mxGeometry x="-0.6988" relative="1" as="geometry">
            <mxPoint x="-4" y="10" as="offset" />
          </mxGeometry>
        </mxCell>
        <mxCell id="KQp-jgdmM7OsWoOIAHp7-36" value="&lt;font style=&quot;font-size: 8px;&quot; face=&quot;Times New Roman&quot;&gt;*&lt;/font&gt;" style="edgeLabel;html=1;align=center;verticalAlign=middle;resizable=0;points=[];labelBackgroundColor=none;" parent="KQp-jgdmM7OsWoOIAHp7-7" vertex="1" connectable="0">
          <mxGeometry x="0.6965" relative="1" as="geometry">
            <mxPoint y="10" as="offset" />
          </mxGeometry>
        </mxCell>
        <mxCell id="KQp-jgdmM7OsWoOIAHp7-8" style="edgeStyle=orthogonalEdgeStyle;rounded=0;orthogonalLoop=1;jettySize=auto;html=1;exitX=1;exitY=0.5;exitDx=0;exitDy=0;entryX=0;entryY=0.5;entryDx=0;entryDy=0;endArrow=none;endFill=0;startArrow=diamondThin;startFill=1;labelBackgroundColor=default;" parent="1" source="KQp-jgdmM7OsWoOIAHp7-1" target="KQp-jgdmM7OsWoOIAHp7-2" edge="1">
          <mxGeometry relative="1" as="geometry" />
        </mxCell>
        <mxCell id="KQp-jgdmM7OsWoOIAHp7-26" value="consists-of" style="edgeLabel;html=1;align=center;verticalAlign=middle;resizable=0;points=[];fontSize=8;fontFamily=Times New Roman;labelBackgroundColor=none;" parent="KQp-jgdmM7OsWoOIAHp7-8" vertex="1" connectable="0">
          <mxGeometry x="0.353" relative="1" as="geometry">
            <mxPoint x="-7" y="-10" as="offset" />
          </mxGeometry>
        </mxCell>
        <mxCell id="KQp-jgdmM7OsWoOIAHp7-29" value="&lt;font face=&quot;Times New Roman&quot; style=&quot;font-size: 8px;&quot;&gt;1..*&lt;/font&gt;" style="edgeLabel;html=1;align=center;verticalAlign=middle;resizable=0;points=[];labelBackgroundColor=none;" parent="KQp-jgdmM7OsWoOIAHp7-8" vertex="1" connectable="0">
          <mxGeometry x="-0.5767" relative="1" as="geometry">
            <mxPoint y="10" as="offset" />
          </mxGeometry>
        </mxCell>
        <mxCell id="KQp-jgdmM7OsWoOIAHp7-30" value="&lt;font style=&quot;font-size: 8px;&quot; face=&quot;Times New Roman&quot;&gt;*&lt;/font&gt;" style="edgeLabel;html=1;align=center;verticalAlign=middle;resizable=0;points=[];labelBackgroundColor=none;" parent="KQp-jgdmM7OsWoOIAHp7-8" vertex="1" connectable="0">
          <mxGeometry x="0.8633" relative="1" as="geometry">
            <mxPoint x="-3" y="10" as="offset" />
          </mxGeometry>
        </mxCell>
        <mxCell id="KQp-jgdmM7OsWoOIAHp7-1" value="Ingredient" style="rounded=0;whiteSpace=wrap;html=1;fontFamily=Times New Roman;fontSize=12;fontStyle=1;labelBackgroundColor=none;" parent="1" vertex="1">
          <mxGeometry x="240" y="160" width="120" height="40" as="geometry" />
        </mxCell>
        <mxCell id="KQp-jgdmM7OsWoOIAHp7-9" style="edgeStyle=orthogonalEdgeStyle;rounded=0;orthogonalLoop=1;jettySize=auto;html=1;exitX=1;exitY=0.5;exitDx=0;exitDy=0;entryX=0;entryY=0.5;entryDx=0;entryDy=0;endArrow=none;endFill=0;startArrow=diamondThin;startFill=0;labelBackgroundColor=default;" parent="1" source="KQp-jgdmM7OsWoOIAHp7-2" target="KQp-jgdmM7OsWoOIAHp7-3" edge="1">
          <mxGeometry relative="1" as="geometry" />
        </mxCell>
        <mxCell id="KQp-jgdmM7OsWoOIAHp7-27" value="&lt;font style=&quot;font-size: 8px;&quot; face=&quot;Times New Roman&quot;&gt;consists-of&lt;/font&gt;" style="edgeLabel;html=1;align=center;verticalAlign=middle;resizable=0;points=[];labelBackgroundColor=none;" parent="KQp-jgdmM7OsWoOIAHp7-9" vertex="1" connectable="0">
          <mxGeometry x="0.04" y="1" relative="1" as="geometry">
            <mxPoint x="-1" y="-9" as="offset" />
          </mxGeometry>
        </mxCell>
        <mxCell id="KQp-jgdmM7OsWoOIAHp7-14" style="edgeStyle=orthogonalEdgeStyle;rounded=0;orthogonalLoop=1;jettySize=auto;html=1;exitX=0.5;exitY=1;exitDx=0;exitDy=0;entryX=1;entryY=0.25;entryDx=0;entryDy=0;endArrow=none;endFill=0;startArrow=classic;startFill=1;labelBackgroundColor=default;" parent="1" source="KQp-jgdmM7OsWoOIAHp7-2" target="KQp-jgdmM7OsWoOIAHp7-4" edge="1">
          <mxGeometry relative="1" as="geometry" />
        </mxCell>
        <mxCell id="KQp-jgdmM7OsWoOIAHp7-15" value="&lt;font face=&quot;Times New Roman&quot; style=&quot;font-size: 10px;&quot;&gt;favorites&lt;/font&gt;" style="edgeLabel;html=1;align=center;verticalAlign=middle;resizable=0;points=[];fontSize=10;labelBackgroundColor=none;" parent="KQp-jgdmM7OsWoOIAHp7-14" vertex="1" connectable="0">
          <mxGeometry x="0.3829" relative="1" as="geometry">
            <mxPoint y="-10" as="offset" />
          </mxGeometry>
        </mxCell>
        <mxCell id="KQp-jgdmM7OsWoOIAHp7-2" value="MenuItem" style="rounded=0;whiteSpace=wrap;html=1;fontFamily=Times New Roman;fontSize=12;fontStyle=1;labelBackgroundColor=none;" parent="1" vertex="1">
          <mxGeometry x="400" y="160" width="120" height="40" as="geometry" />
        </mxCell>
        <mxCell id="KQp-jgdmM7OsWoOIAHp7-3" value="Stall" style="rounded=0;whiteSpace=wrap;html=1;fontFamily=Times New Roman;fontSize=12;fontStyle=1;labelBackgroundColor=none;" parent="1" vertex="1">
          <mxGeometry x="560" y="160" width="120" height="40" as="geometry" />
        </mxCell>
        <mxCell id="KQp-jgdmM7OsWoOIAHp7-10" style="edgeStyle=orthogonalEdgeStyle;rounded=0;orthogonalLoop=1;jettySize=auto;html=1;exitX=0.5;exitY=1;exitDx=0;exitDy=0;entryX=0;entryY=0.5;entryDx=0;entryDy=0;endArrow=none;endFill=0;startArrow=classic;startFill=1;labelBackgroundColor=default;" parent="1" source="KQp-jgdmM7OsWoOIAHp7-4" target="KQp-jgdmM7OsWoOIAHp7-6" edge="1">
          <mxGeometry relative="1" as="geometry" />
        </mxCell>
        <mxCell id="KQp-jgdmM7OsWoOIAHp7-23" value="owns" style="edgeLabel;html=1;align=center;verticalAlign=middle;resizable=0;points=[];fontFamily=Times New Roman;fontSize=10;labelBackgroundColor=none;" parent="KQp-jgdmM7OsWoOIAHp7-10" vertex="1" connectable="0">
          <mxGeometry x="-0.052" relative="1" as="geometry">
            <mxPoint x="-15" y="6" as="offset" />
          </mxGeometry>
        </mxCell>
        <mxCell id="KQp-jgdmM7OsWoOIAHp7-24" value="&lt;font face=&quot;Times New Roman&quot; style=&quot;font-size: 10px;&quot;&gt;1&lt;/font&gt;" style="edgeLabel;html=1;align=center;verticalAlign=middle;resizable=0;points=[];labelBackgroundColor=none;" parent="KQp-jgdmM7OsWoOIAHp7-10" vertex="1" connectable="0">
          <mxGeometry x="-0.6593" relative="1" as="geometry">
            <mxPoint x="-10" as="offset" />
          </mxGeometry>
        </mxCell>
        <mxCell id="KQp-jgdmM7OsWoOIAHp7-25" value="&lt;font face=&quot;Times New Roman&quot; style=&quot;font-size: 10px;&quot;&gt;1&lt;/font&gt;" style="edgeLabel;html=1;align=center;verticalAlign=middle;resizable=0;points=[];labelBackgroundColor=none;" parent="KQp-jgdmM7OsWoOIAHp7-10" vertex="1" connectable="0">
          <mxGeometry x="0.8148" y="1" relative="1" as="geometry">
            <mxPoint y="11" as="offset" />
          </mxGeometry>
        </mxCell>
        <mxCell id="KQp-jgdmM7OsWoOIAHp7-11" style="edgeStyle=orthogonalEdgeStyle;rounded=0;orthogonalLoop=1;jettySize=auto;html=1;exitX=1;exitY=0.75;exitDx=0;exitDy=0;entryX=0;entryY=0.75;entryDx=0;entryDy=0;endArrow=classic;endFill=1;labelBackgroundColor=default;" parent="1" source="KQp-jgdmM7OsWoOIAHp7-4" target="KQp-jgdmM7OsWoOIAHp7-5" edge="1">
          <mxGeometry relative="1" as="geometry">
            <Array as="points" />
          </mxGeometry>
        </mxCell>
        <mxCell id="KQp-jgdmM7OsWoOIAHp7-16" value="&lt;font face=&quot;Times New Roman&quot; style=&quot;font-size: 10px;&quot;&gt;wrote&lt;/font&gt;" style="edgeLabel;html=1;align=center;verticalAlign=middle;resizable=0;points=[];labelBackgroundColor=none;" parent="KQp-jgdmM7OsWoOIAHp7-11" vertex="1" connectable="0">
          <mxGeometry relative="1" as="geometry">
            <mxPoint y="10" as="offset" />
          </mxGeometry>
        </mxCell>
        <mxCell id="KQp-jgdmM7OsWoOIAHp7-37" style="edgeStyle=orthogonalEdgeStyle;rounded=0;orthogonalLoop=1;jettySize=auto;html=1;entryX=0.5;entryY=1;entryDx=0;entryDy=0;labelBackgroundColor=default;" parent="1" source="KQp-jgdmM7OsWoOIAHp7-4" target="KQp-jgdmM7OsWoOIAHp7-32" edge="1">
          <mxGeometry relative="1" as="geometry">
            <mxPoint x="150" y="240" as="targetPoint" />
          </mxGeometry>
        </mxCell>
        <mxCell id="KQp-jgdmM7OsWoOIAHp7-38" value="&lt;font style=&quot;font-size: 10px;&quot; face=&quot;Times New Roman&quot;&gt;contains&lt;/font&gt;" style="edgeLabel;html=1;align=center;verticalAlign=middle;resizable=0;points=[];labelBackgroundColor=none;" parent="KQp-jgdmM7OsWoOIAHp7-37" vertex="1" connectable="0">
          <mxGeometry x="-0.2905" y="1" relative="1" as="geometry">
            <mxPoint y="-11" as="offset" />
          </mxGeometry>
        </mxCell>
        <mxCell id="KQp-jgdmM7OsWoOIAHp7-4" value="UserProfile" style="rounded=0;whiteSpace=wrap;html=1;fontFamily=Times New Roman;fontSize=12;fontStyle=1;labelBackgroundColor=none;" parent="1" vertex="1">
          <mxGeometry x="240" y="240" width="120" height="40" as="geometry" />
        </mxCell>
        <mxCell id="KQp-jgdmM7OsWoOIAHp7-18" style="edgeStyle=orthogonalEdgeStyle;rounded=0;orthogonalLoop=1;jettySize=auto;html=1;entryX=0.75;entryY=1;entryDx=0;entryDy=0;startArrow=classic;startFill=1;endArrow=none;endFill=0;labelBackgroundColor=default;" parent="1" source="KQp-jgdmM7OsWoOIAHp7-5" target="KQp-jgdmM7OsWoOIAHp7-2" edge="1">
          <mxGeometry relative="1" as="geometry">
            <Array as="points">
              <mxPoint x="490" y="250" />
            </Array>
          </mxGeometry>
        </mxCell>
        <mxCell id="KQp-jgdmM7OsWoOIAHp7-19" value="&lt;font style=&quot;font-size: 10px;&quot; face=&quot;Times New Roman&quot;&gt;has&lt;/font&gt;" style="edgeLabel;html=1;align=center;verticalAlign=middle;resizable=0;points=[];fontSize=10;labelBackgroundColor=none;" parent="KQp-jgdmM7OsWoOIAHp7-18" vertex="1" connectable="0">
          <mxGeometry x="0.0042" relative="1" as="geometry">
            <mxPoint y="-10" as="offset" />
          </mxGeometry>
        </mxCell>
        <mxCell id="KQp-jgdmM7OsWoOIAHp7-21" value="&lt;font style=&quot;font-size: 10px;&quot; face=&quot;Times New Roman&quot;&gt;1&lt;/font&gt;" style="edgeLabel;html=1;align=center;verticalAlign=middle;resizable=0;points=[];labelBackgroundColor=none;" parent="KQp-jgdmM7OsWoOIAHp7-18" vertex="1" connectable="0">
          <mxGeometry x="0.921" relative="1" as="geometry">
            <mxPoint x="4" y="6" as="offset" />
          </mxGeometry>
        </mxCell>
        <mxCell id="KQp-jgdmM7OsWoOIAHp7-22" value="*" style="edgeLabel;html=1;align=center;verticalAlign=middle;resizable=0;points=[];fontFamily=Times New Roman;fontSize=10;labelBackgroundColor=none;" parent="KQp-jgdmM7OsWoOIAHp7-18" vertex="1" connectable="0">
          <mxGeometry x="-0.7377" relative="1" as="geometry">
            <mxPoint x="-1" y="-8" as="offset" />
          </mxGeometry>
        </mxCell>
        <mxCell id="KQp-jgdmM7OsWoOIAHp7-5" value="Review" style="rounded=0;whiteSpace=wrap;html=1;fontFamily=Times New Roman;fontSize=12;fontStyle=1;labelBackgroundColor=none;" parent="1" vertex="1">
          <mxGeometry x="560" y="240" width="120" height="40" as="geometry" />
        </mxCell>
        <mxCell id="KQp-jgdmM7OsWoOIAHp7-6" value="User" style="rounded=0;whiteSpace=wrap;html=1;fontFamily=Times New Roman;fontSize=12;fontStyle=1;labelBackgroundColor=none;" parent="1" vertex="1">
          <mxGeometry x="320" y="320" width="120" height="40" as="geometry" />
        </mxCell>
        <mxCell id="KQp-jgdmM7OsWoOIAHp7-32" value="DietaryRestriction" style="rounded=0;whiteSpace=wrap;html=1;fontFamily=Times New Roman;fontSize=12;fontStyle=1;labelBackgroundColor=none;" parent="1" vertex="1">
          <mxGeometry x="80" y="160" width="120" height="40" as="geometry" />
        </mxCell>
        <mxCell id="KQp-jgdmM7OsWoOIAHp7-39" value="&lt;font face=&quot;Times New Roman&quot;&gt;Parameters for Recommendation Engine&lt;/font&gt;" style="swimlane;whiteSpace=wrap;html=1;" parent="1" vertex="1">
          <mxGeometry x="60" y="120" width="640" height="190" as="geometry" />
        </mxCell>
        <mxCell id="KQp-jgdmM7OsWoOIAHp7-41" value="Recommendation&lt;br&gt;Engine" style="rounded=0;whiteSpace=wrap;html=1;fontFamily=Times New Roman;fontSize=12;fontStyle=1;labelBackgroundColor=none;" parent="1" vertex="1">
          <mxGeometry x="560" y="40" width="120" height="40" as="geometry" />
        </mxCell>
        <mxCell id="KQp-jgdmM7OsWoOIAHp7-42" style="edgeStyle=orthogonalEdgeStyle;rounded=0;orthogonalLoop=1;jettySize=auto;html=1;endArrow=none;endFill=0;startArrow=classic;startFill=1;" parent="1" source="KQp-jgdmM7OsWoOIAHp7-41" edge="1">
          <mxGeometry relative="1" as="geometry">
            <mxPoint x="620" y="120" as="targetPoint" />
          </mxGeometry>
        </mxCell>
        <mxCell id="KQp-jgdmM7OsWoOIAHp7-43" value="input" style="edgeLabel;html=1;align=center;verticalAlign=middle;resizable=0;points=[];fontSize=10;fontFamily=Times New Roman;labelBackgroundColor=none;" parent="KQp-jgdmM7OsWoOIAHp7-42" vertex="1" connectable="0">
          <mxGeometry x="0.0314" relative="1" as="geometry">
            <mxPoint x="14" y="1" as="offset" />
          </mxGeometry>
        </mxCell>
      </root>
    </mxGraphModel>
  </diagram>
</mxfile>
